HIERARCHY
ROOT Hips
{
	OFFSET 39.223202 -4.191096 98.790901
	CHANNELS 6 Xposition Yposition Zposition Xrotation Yrotation Zrotation
	JOINT spine
	{
		OFFSET 0.000000 -0.477353 8.301033
		CHANNELS 3 Xrotation Yrotation Zrotation
		JOINT spine1
		{
			OFFSET 0.000000 -0.000001 10.456497
			CHANNELS 3 Xrotation Yrotation Zrotation
			JOINT spine2
			{
				OFFSET 0.000000 -0.000002 10.019203
				CHANNELS 3 Xrotation Yrotation Zrotation
				JOINT Neck
				{
					OFFSET 0.000000 -1.226414 25.723503
					CHANNELS 3 Xrotation Yrotation Zrotation
					JOINT Head
					{
						OFFSET 0.000000 -0.000001 7.771744
						CHANNELS 3 Xrotation Yrotation Zrotation
						End Site
						{
							OFFSET 0.000000 6.203937 18.811996
						}
					}
				}
				JOINT RightShoulder
				{
					OFFSET -4.218800 0.587438 10.820000
					CHANNELS 3 Xrotation Yrotation Zrotation
					JOINT RightArm
					{
						OFFSET 0.000000 -0.000002 14.191406
						CHANNELS 3 Xrotation Yrotation Zrotation
						JOINT RightArmRoll
						{
							OFFSET 0.000000 -0.000001 7.164078
							CHANNELS 3 Xrotation Yrotation Zrotation
							JOINT RightForeArm
							{
								OFFSET 0.000000 -0.000003 20.866501
								CHANNELS 3 Xrotation Yrotation Zrotation
								JOINT RightForeArmRoll
								{
									OFFSET 0.000000 -0.000001 8.039215
									CHANNELS 3 Xrotation Yrotation Zrotation
									JOINT RightHand
									{
										OFFSET 0.000000 -0.000003 16.132996
										CHANNELS 3 Xrotation Yrotation Zrotation
										End Site
										{
											OFFSET 0.000000 0.000000 0.100006
										}
									}
								}
							}
						}
					}
				}
				JOINT LeftShoulder
				{
					OFFSET 4.218800 0.587438 10.820000
					CHANNELS 3 Xrotation Yrotation Zrotation
					JOINT LeftArm
					{
						OFFSET 0.000000 -0.000002 14.191406
						CHANNELS 3 Xrotation Yrotation Zrotation
						JOINT LeftArmRoll
						{
							OFFSET 0.000000 -0.000001 7.164078
							CHANNELS 3 Xrotation Yrotation Zrotation
							JOINT LeftForeArm
							{
								OFFSET 0.000000 -0.000003 20.866501
								CHANNELS 3 Xrotation Yrotation Zrotation
								JOINT LeftForeArmRoll
								{
									OFFSET 0.000000 -0.000001 8.039215
									CHANNELS 3 Xrotation Yrotation Zrotation
									JOINT LeftHand
									{
										OFFSET 0.000000 -0.000003 16.132996
										CHANNELS 3 Xrotation Yrotation Zrotation
										End Site
										{
											OFFSET 0.000000 0.000000 0.100006
										}
									}
								}
							}
						}
					}
				}
			}
		}
	}
	JOINT RightUpLeg
	{
		OFFSET -7.357731 1.131810 -1.349213
		CHANNELS 3 Xrotation Yrotation Zrotation
		JOINT RightUpLegRoll
		{
			OFFSET 0.000000 -0.000003 18.916801
			CHANNELS 3 Xrotation Yrotation Zrotation
			JOINT RightLeg
			{
				OFFSET 0.000000 0.000004 -23.425598
				CHANNELS 3 Xrotation Yrotation Zrotation
				JOINT RightLegRoll
				{
					OFFSET 0.000000 -0.000004 23.502304
					CHANNELS 3 Xrotation Yrotation Zrotation
					JOINT RightFoot
					{
						OFFSET 0.000000 -0.000003 19.561707
						CHANNELS 3 Xrotation Yrotation Zrotation
						JOINT RightToeBase
						{
							OFFSET 0.000000 -0.000003 16.352600
							CHANNELS 3 Xrotation Yrotation Zrotation
							End Site
							{
								OFFSET 0.006931 0.912836 7.919434
							}
						}
					}
				}
			}
		}
	}
	JOINT LeftUpLeg
	{
		OFFSET 7.357731 1.131810 -1.349213
		CHANNELS 3 Xrotation Yrotation Zrotation
		JOINT LeftUpLegRoll
		{
			OFFSET 0.000000 -0.000003 18.916901
			CHANNELS 3 Xrotation Yrotation Zrotation
			JOINT LeftLeg
			{
				OFFSET 0.000000 -0.000004 23.425499
				CHANNELS 3 Xrotation Yrotation Zrotation
				JOINT LeftLegRoll
				{
					OFFSET 0.000000 -0.000004 23.719498
					CHANNELS 3 Xrotation Yrotation Zrotation
					JOINT LeftFoot
					{
						OFFSET 0.000000 -0.000003 19.344406
						CHANNELS 3 Xrotation Yrotation Zrotation
						JOINT LeftToeBase
						{
							OFFSET 0.000000 -0.000003 16.352600
							CHANNELS 3 Xrotation Yrotation Zrotation
							End Site
							{
								OFFSET -0.031063 0.912835 7.919434
							}
						}
					}
				}
			}
		}
	}
}
MOTION
Frames: 5
Frame Time: 0.041667
39.591599 -4.313837 98.827690 -3.213525 -1.035859 1.313564 -1.240243 -0.103317 0.032587 1.512581 -0.210140 0.062492 3.157651 -0.209703 0.065084 22.934604 3.673531 -1.125610 -9.023999 -1.604621 -0.923512 -2.053968 -73.887887 -3.990257 -78.703191 -117.247902 -44.126946 0.000000 -0.000003 0.000004 -0.015165 1.355890 1.111028 -0.000002 -0.000002 -3.111480 -5.000164 -8.000085 -0.000003 4.957821 67.100120 -4.550942 -45.044746 105.498166 28.695698 -0.000000 0.000001 0.000001 4.663322 11.127069 0.039583 0.000001 -0.000005 3.007941 -5.000230 7.998741 -0.000154 2.004769 -175.272899 2.107619 -179.999991 0.000006 -1.107005 174.921117 -4.537185 -0.611818 -0.000003 -0.000000 0.060191 68.726675 6.877283 2.174804 25.456854 -7.355621 -0.000002 2.053346 176.403309 1.043183 -0.000005 -0.000005 -1.176170 -8.656450 3.357295 0.934751 -0.000003 -0.000004 -0.111515 68.642657 -6.922424 -2.071373 25.456955 7.355613 -0.000000 
39.592697 -4.318129 98.825493 -3.220126 -1.036721 1.321626 -1.239744 -0.104337 0.032317 1.513210 -0.211352 0.062207 3.158281 -0.210895 0.064814 22.939964 3.686297 -1.129994 -9.032136 -1.614214 -0.927032 -2.081694 -73.885421 -4.020131 -78.801258 -117.225471 -44.098806 0.000002 -0.000003 0.000002 -0.015538 1.472310 1.136061 -0.000001 -0.000002 -3.110904 -5.000166 -8.000086 -0.000006 4.984504 67.118848 -4.578073 -44.992133 105.473694 28.514605 -0.000001 -0.000000 -0.000000 4.684435 11.030339 0.048022 0.000001 -0.000005 3.007939 -5.000230 7.998741 -0.000155 2.015075 -175.271916 2.110994 -179.999991 0.000005 -1.107005 174.921445 -4.538193 -0.611883 -0.000003 -0.000000 0.060191 68.726238 6.877255 2.174824 25.456858 -7.355620 -0.000002 2.057303 176.403323 1.038415 -0.000005 -0.000005 -1.176170 -8.667569 3.360508 0.935090 -0.000003 -0.000004 -0.111515 68.644446 -6.922433 -2.071361 25.456957 7.355613 0.000000 
39.591400 -4.320336 98.822990 -3.227182 -1.037543 1.329772 -1.239054 -0.105389 0.031988 1.514161 -0.212582 0.061815 3.159241 -0.212104 0.064440 22.943640 3.699781 -1.134216 -9.038491 -1.624328 -0.930379 -2.108823 -73.883051 -4.049365 -78.896116 -117.203983 -44.068766 0.000002 -0.000003 0.000005 -0.015879 1.588080 1.160913 -0.000002 -0.000001 -3.110329 -5.000164 -8.000085 -0.000002 5.011463 67.137447 -4.605531 -44.938956 105.450498 28.333170 -0.000000 0.000001 0.000002 4.703606 10.933547 0.056821 0.000003 -0.000005 3.007939 -5.000228 7.998741 -0.000155 2.025996 -175.270946 2.114490 -179.999991 0.000005 -1.107005 174.921882 -4.539191 -0.610938 -0.000003 -0.000000 0.060191 68.725937 6.877269 2.174746 25.456860 -7.355620 -0.000003 2.061742 176.403323 1.033416 -0.000005 -0.000005 -1.176170 -8.678869 3.363838 0.935438 -0.000002 -0.000004 -0.111515 68.646236 -6.922405 -2.071343 25.456950 7.355614 -0.000000 
39.584202 -4.342777 98.824989 -3.234550 -1.038344 1.337963 -1.238235 -0.106465 0.031618 1.515331 -0.213823 0.061350 3.160412 -0.213326 0.063991 22.946229 3.713754 -1.138326 -9.043602 -1.634813 -0.933605 -2.135543 -73.880886 -4.078163 -78.988488 -117.183233 -44.036945 0.000003 -0.000003 0.000007 -0.016206 1.703400 1.185654 0.000000 -0.000001 -3.109770 -5.000165 -8.000087 -0.000002 5.038577 67.155847 -4.633179 -44.884404 105.428375 28.150413 -0.000001 0.000001 0.000001 4.721432 10.836682 0.065881 0.000002 -0.000005 3.007940 -5.000228 7.998741 -0.000153 2.037348 -175.269976 2.118071 -179.999991 0.000005 -1.107005 174.922401 -4.541180 -0.611073 -0.000003 -0.000000 0.060191 68.725609 6.877250 2.174763 25.456854 -7.355620 -0.000002 2.066522 176.403337 1.028257 -0.000005 -0.000004 -1.176170 -8.690310 3.367235 0.935792 -0.000003 -0.000004 -0.111515 68.648025 -6.922414 -2.071332 25.456957 7.355613 0.000000 
39.586899 -4.343636 98.828285 -3.242112 -1.039145 1.346190 -1.237342 -0.107554 0.031223 1.516641 -0.215071 0.060842 3.161722 -0.214556 0.063501 22.948123 3.728023 -1.142373 -9.048005 -1.645498 -0.936761 -2.162018 -73.878727 -4.106697 -79.079643 -117.162702 -44.004651 0.000003 -0.000003 0.000004 -0.016524 1.818459 1.210335 -0.000001 -0.000002 -3.109209 -5.000165 -8.000086 -0.000003 5.065856 67.174337 -4.661018 -44.827686 105.407113 27.965479 0.000000 -0.000001 -0.000001 4.738484 10.739727 0.075116 0.000001 -0.000005 3.007940 -5.000227 7.998741 -0.000155 2.048951 -175.269020 2.121693 -179.999991 0.000006 -1.107005 174.922989 -4.542178 -0.611114 -0.000003 -0.000000 0.060191 68.725186 6.877260 2.174892 25.456853 -7.355620 -0.000003 2.071495 176.402353 1.022969 -0.000005 -0.000005 -1.176170 -8.701821 3.370671 0.936150 -0.000004 -0.000004 -0.111515 68.649828 -6.922421 -2.071323 25.456957 7.355613 0.000000 
